<?xml version="1.0" standalone="no"?>
<!DOCTYPE svg PUBLIC "-//W3C//DTD SVG 20010904//EN"
 "http://www.w3.org/TR/2001/REC-SVG-20010904/DTD/svg10.dtd">
<svg version="1.0" xmlns="http://www.w3.org/2000/svg"
 width="320.000000pt" height="320.000000pt" viewBox="0 0 320.000000 320.000000"
 preserveAspectRatio="xMidYMid meet">

<g transform="translate(0.000000,320.000000) scale(0.100000,-0.100000)"
fill="#000000" stroke="none">
<path d="M211 2438 c76 -380 140 -692 141 -693 2 -1 383 -23 848 -49 1019 -57
1020 -57 1020 -67 0 -5 -6 -9 -12 -10 -7 0 -429 -35 -938 -77 l-924 -77 -151
-670 c-83 -369 -154 -682 -158 -697 -4 -16 -4 -28 1 -28 5 0 425 209 933 465
508 256 1209 608 1556 783 348 174 633 320 633 323 0 3 -91 50 -202 104 -1884
910 -2870 1385 -2877 1385 -4 0 54 -311 130 -692z"/>
</g>
</svg>
